PathFileType	4	(X/Y/Z)	G:\GRF\jawan data\CompiledGRF\03. Mohit Kumar\0231~ac~Standing_markers.trc
DataRate	CameraRate	NumFrames	NumMarkers	Units	OrigDataRate	OrigDataStartFrame	OrigNumFrames
100.000000	100.000000	5	18	mm	100.000000	73	584
Frame#	Time	c7			r should			l should			sacrum			r asis			r bar 1			r knee 1			r bar 2			r mall			r heel			r met			l asis			l bar 1			l knee 1			l bar 2			l mall			l heel			l met			
		X1	Y1	Z1	X2	Y2	Z2	X3	Y3	Z3	X4	Y4	Z4	X5	Y5	Z5	X6	Y6	Z6	X7	Y7	Z7	X8	Y8	Z8	X9	Y9	Z9	X10	Y10	Z10	X11	Y11	Z11	X12	Y12	Z12	X13	Y13	Z13	X14	Y14	Z14	X15	Y15	Z15	X16	Y16	Z16	X17	Y17	Z17	X18	Y18	Z18	

74	0.73	295.2458190917969	1519.740112304688	150.8809051513672	384.4379272460938	1461.010864257813	320.8964538574219	378.4337463378906	1471.437255859375	-19.14136695861816	270.6758422851563	1059.828979492188	134.7178955078125	448.9061279296875	1019.3681640625	265.6584777832031	341.5538940429688	613.2161865234375	332.338134765625	353.0531005859375	524.920166015625	281.6365966796875	288.0898742675781	202.2580871582031	302.6422119140625	302.6858825683594	75.58558654785156	241.7277069091797	251.1326446533203	38.91593933105469	190.0214996337891	453.6725769042969	38.85221862792969	253.0977172851563	456.3546752929688	1025.773803710938	12.76382827758789	347.8888244628906	606.99560546875	-42.79388046264648	351.7413635253906	518.0003662109375	15.53236961364746	291.3087768554688	243.4144592285156	-19.74432945251465	299.4889831542969	75.16596221923828	57.21711730957031	246.3459320068359	34.64963150024414	116.6788024902344	447.4261169433594	39.51797485351563	58.3178596496582	
75	0.74	295.1184692382813	1519.76806640625	150.9660797119141	384.4984436035156	1460.983764648438	320.9990539550781	378.1588439941406	1471.517578125	-19.06414985656738	270.5090637207031	1059.865234375	134.7968139648438	448.8627319335938	1019.339660644531	265.7130432128906	341.5184020996094	613.2081298828125	332.3670654296875	353.0423583984375	524.8800048828125	281.6646728515625	288.2490844726563	202.1540374755859	302.6391296386719	302.5994262695313	75.5804443359375	241.7174072265625	251.2742004394531	38.81895446777344	190.0794219970703	453.6852722167969	38.85302734375	253.1025390625	456.4552001953125	1025.850341796875	12.82258796691895	347.9012145996094	606.9981689453125	-42.74396514892578	351.7931213378906	517.9694213867188	15.52902793884277	291.3187255859375	243.4335327148438	-19.68363952636719	299.3580627441406	75.22307586669922	57.22533798217773	246.2701721191406	34.63113021850586	116.7010879516602	447.512451171875	39.52215576171875	58.32796096801758	
76	0.75	295.0997924804688	1519.75146484375	151.0272064208984	384.4216918945313	1460.974487304688	321.0552978515625	377.9800415039063	1471.593017578125	-18.98437309265137	270.4620361328125	1059.889526367188	134.8402862548828	448.8794555664063	1019.339538574219	265.7831420898438	341.4190673828125	613.19384765625	332.384765625	353.0580139160156	524.85888671875	281.6927490234375	288.3943176269531	202.0088653564453	302.7380981445313	302.6469116210938	75.57373046875	241.7132415771484	251.5031127929688	38.72027969360352	190.0817718505859	453.6282958984375	38.86394500732422	253.0867156982422	456.4929809570313	1025.949584960938	12.84403514862061	347.85791015625	606.9949951171875	-42.66593551635742	351.9102783203125	518.0383911132813	15.60047340393066	291.3190002441406	243.4599151611328	-19.65447616577148	299.3536987304688	75.22045135498047	57.23227691650391	246.0744934082031	34.81017684936523	116.6656723022461	447.6595458984375	39.54783248901367	58.34857177734375	
77	0.76	295.2822875976563	1519.707275390625	151.1336364746094	384.4132995605469	1460.95849609375	321.1312561035156	378.0377502441406	1471.6044921875	-18.9202823638916	270.5312805175781	1059.853637695313	134.8907623291016	448.7789001464844	1019.30615234375	265.7835388183594	341.324462890625	613.1685791015625	332.389892578125	353.0597839355469	524.85986328125	281.6734924316406	288.34375	201.97802734375	302.7795104980469	302.7003479003906	75.55642700195313	241.7236022949219	251.9284820556641	38.54173278808594	190.0759887695313	453.6526489257813	38.8228759765625	253.0764007568359	456.5197143554688	1025.977172851563	12.89228820800781	347.8638610839844	607.0746459960938	-42.60681533813477	351.8607482910156	518.0274658203125	15.64944934844971	291.3847961425781	243.4670715332031	-19.6509952545166	299.4243469238281	75.21103668212891	57.27618789672852	245.9820556640625	34.94783020019531	116.6907958984375	447.6473693847656	39.51471328735352	58.31711578369141	
78	0.77	295.3935546875	1519.65966796875	151.214599609375	384.4705200195313	1460.969116210938	321.2197875976563	378.1200561523438	1471.600952148438	-18.87818145751953	270.6217346191406	1059.786987304688	134.9245910644531	448.6289672851563	1019.235107421875	265.8085327148438	341.3727722167969	613.1306762695313	332.4079284667969	352.9889831542969	524.84619140625	281.6663818359375	288.298583984375	201.9855651855469	302.7748718261719	302.6568298339844	75.54736328125	241.6946258544922	251.9714202880859	38.54219055175781	190.0316772460938	453.6333618164063	38.81230163574219	253.1003723144531	456.5594482421875	1025.96044921875	12.96573352813721	347.872314453125	607.0591430664063	-42.5523681640625	351.6511840820313	517.9722290039063	15.69084453582764	291.3938903808594	243.4431610107422	-19.6502571105957	299.529541015625	75.18574523925781	57.29009246826172	246.1188354492188	34.833984375	116.673469543457	447.5534362792969	39.49434280395508	58.32304763793945	
